<svg xmlns="http://www.w3.org/2000/svg" viewBox="0 0 14 14" fill="none">
    <path d="M7.00408 3.57537C7.00434 3.63163 6.99337 3.68738 6.9718 3.73933C6.95024 3.79129 6.91851 3.83842 6.87848 3.87795L3.75562 7.00081L6.87848 10.1237C6.95411 10.2048 6.99529 10.3122 6.99333 10.4231C6.99137 10.5341 6.94644 10.6399 6.86799 10.7183C6.78954 10.7968 6.6837 10.8417 6.57277 10.8437C6.46184 10.8456 6.35449 10.8045 6.27332 10.7288L2.84788 7.30339C2.7677 7.22311 2.72266 7.11428 2.72266 7.00081C2.72266 6.88734 2.7677 6.77852 2.84788 6.69823L6.27332 3.27279C6.3536 3.19261 6.46243 3.14757 6.5759 3.14757C6.68937 3.14757 6.7982 3.19261 6.87848 3.27279C6.91851 3.31233 6.95024 3.35945 6.9718 3.41141C6.99337 3.46337 7.00434 3.51912 7.00408 3.57537Z" fill="url(#paint0_linear_637_16560)"/>
    <path d="M11.5717 7.00151C11.5702 7.11461 11.5246 7.22266 11.4447 7.30264C11.3647 7.38262 11.2566 7.42821 11.1435 7.42969L3.15084 7.42969C3.03728 7.42969 2.92837 7.38458 2.84807 7.30428C2.76777 7.22398 2.72266 7.11507 2.72266 7.00151C2.72266 6.88795 2.76777 6.77904 2.84807 6.69874C2.92837 6.61844 3.03728 6.57333 3.15084 6.57333L11.1435 6.57333C11.2566 6.57481 11.3647 6.62039 11.4447 6.70038C11.5246 6.78036 11.5702 6.88841 11.5717 7.00151Z" fill="url(#paint1_linear_637_16560)"/>
    <defs>
        <linearGradient id="paint0_linear_637_16560" x1="2.72266" y1="6.99566" x2="7.00408" y2="6.99566" gradientUnits="userSpaceOnUse">
            <stop stop-color="#26CAA9"/>
            <stop offset="1" stop-color="#0B50FD"/>
        </linearGradient>
        <linearGradient id="paint1_linear_637_16560" x1="2.72266" y1="7.00151" x2="11.5717" y2="7.00151" gradientUnits="userSpaceOnUse">
            <stop stop-color="#26CAA9"/>
            <stop offset="1" stop-color="#0B50FD"/>
        </linearGradient>
    </defs>
</svg>