<svg viewBox="0 0 14 14" fill="none" xmlns="http://www.w3.org/2000/svg">
<path d="M6.99592 10.4246C6.99566 10.3684 7.00663 10.3126 7.0282 10.2607C7.04977 10.2087 7.08149 10.1616 7.12152 10.122L10.2444 6.99919L7.12152 3.87633C7.04589 3.79516 7.00471 3.6878 7.00667 3.57688C7.00863 3.46595 7.05356 3.36011 7.13201 3.28166C7.21046 3.20321 7.3163 3.15827 7.42723 3.15632C7.53816 3.15436 7.64551 3.19553 7.72668 3.27117L11.1521 6.69661C11.2323 6.77689 11.2773 6.88572 11.2773 6.99919C11.2773 7.11266 11.2323 7.22148 11.1521 7.30177L7.72668 10.7272C7.6464 10.8074 7.53757 10.8524 7.4241 10.8524C7.31063 10.8524 7.20181 10.8074 7.12152 10.7272C7.08149 10.6877 7.04977 10.6405 7.0282 10.5886C7.00663 10.5366 6.99566 10.4809 6.99592 10.4246Z" fill="url(#paint0_linear_637_16544)"/>
<path d="M2.42829 6.99849C2.42977 6.88539 2.47536 6.77734 2.55534 6.69736C2.63532 6.61738 2.74337 6.57179 2.85647 6.57031L10.8492 6.57031C10.9627 6.57031 11.0716 6.61542 11.1519 6.69572C11.2322 6.77602 11.2773 6.88493 11.2773 6.99849C11.2773 7.11205 11.2322 7.22096 11.1519 7.30126C11.0716 7.38156 10.9627 7.42667 10.8492 7.42667L2.85647 7.42667C2.74337 7.42519 2.63532 7.37961 2.55534 7.29963C2.47536 7.21964 2.42977 7.11159 2.42829 6.99849Z" fill="url(#paint1_linear_637_16544)"/>
<defs>
<linearGradient id="paint0_linear_637_16544" x1="11.2773" y1="7.00434" x2="6.99592" y2="7.00434" gradientUnits="userSpaceOnUse">
<stop stop-color="#26CAA9"/>
<stop offset="1" stop-color="#0B50FD"/>
</linearGradient>
<linearGradient id="paint1_linear_637_16544" x1="11.2773" y1="6.99849" x2="2.42829" y2="6.99849" gradientUnits="userSpaceOnUse">
<stop stop-color="#26CAA9"/>
<stop offset="1" stop-color="#0B50FD"/>
</linearGradient>
</defs>
</svg>
