<svg width="60" height="67" viewBox="0 0 60 67" fill="none" xmlns="http://www.w3.org/2000/svg">
<mask id="path-1-inside-1_2261_6460" fill="white">
<path d="M30 0C46.5685 0 59.9999 13.4315 60 30C60 44.9279 49.0968 57.3072 34.8196 59.6129C34.5172 59.6617 34.2495 59.8413 34.0963 60.1066L30.867 65.7001C30.4821 66.3668 29.5198 66.3668 29.1349 65.7001L25.9057 60.1067C25.7525 59.8414 25.4848 59.6617 25.1823 59.6129C10.9043 57.3079 0 44.9285 0 30C0.000131379 13.4315 13.4315 8.04075e-05 30 0Z"/>
</mask>
<path d="M30 0C46.5685 0 59.9999 13.4315 60 30C60 44.9279 49.0968 57.3072 34.8196 59.6129C34.5172 59.6617 34.2495 59.8413 34.0963 60.1066L30.867 65.7001C30.4821 66.3668 29.5198 66.3668 29.1349 65.7001L25.9057 60.1067C25.7525 59.8414 25.4848 59.6617 25.1823 59.6129C10.9043 57.3079 0 44.9285 0 30C0.000131379 13.4315 13.4315 8.04075e-05 30 0Z" fill="white"/>
<path d="M30 0L30 -2L30 -2L30 0ZM60 30L62 30L62 30L60 30ZM0 30L-2 30V30H0ZM25.9057 60.1067L27.6377 59.1067L25.9057 60.1067ZM25.1823 59.6129L25.5011 57.6385L25.1823 59.6129ZM29.1349 65.7001L30.867 64.7002L29.1349 65.7001ZM34.8196 59.6129L35.1384 61.5873L34.8196 59.6129ZM34.0963 60.1066L35.8284 61.1066L34.0963 60.1066ZM30 0V2C45.464 2 57.9999 14.536 58 30L60 30L62 30C61.9999 12.3269 47.6731 -2 30 -2V0ZM60 30H58C58 43.9307 47.8247 55.4867 34.5007 57.6385L34.8196 59.6129L35.1384 61.5873C50.3689 59.1277 62 45.9252 62 30H60ZM34.0963 60.1066L32.3643 59.1067L29.1349 64.7002L30.867 65.7001L32.5991 66.7001L35.8284 61.1066L34.0963 60.1066ZM29.1349 65.7001L30.867 64.7002L27.6377 59.1067L25.9057 60.1067L24.1736 61.1067L27.4029 66.7001L29.1349 65.7001ZM25.1823 59.6129L25.5011 57.6385C12.1763 55.4874 2 43.9311 2 30H0H-2C-2 45.9259 9.63232 59.1284 24.8636 61.5873L25.1823 59.6129ZM0 30L2 30C2.00012 14.5361 14.5361 2.00008 30 2L30 0L30 -2C12.3269 -1.99991 -1.99986 12.327 -2 30L0 30ZM25.9057 60.1067L27.6377 59.1067C27.1739 58.3033 26.3772 57.7799 25.5011 57.6385L25.1823 59.6129L24.8636 61.5873C24.5924 61.5436 24.331 61.3794 24.1736 61.1067L25.9057 60.1067ZM30.867 65.7001L29.1349 64.7002C29.5198 64.0335 30.4821 64.0335 30.867 64.7002L29.1349 65.7001L27.4029 66.7001C28.5576 68.7002 31.4444 68.7002 32.5991 66.7001L30.867 65.7001ZM34.8196 59.6129L34.5007 57.6385C33.6247 57.7799 32.828 58.3034 32.3643 59.1067L34.0963 60.1066L35.8284 61.1066C35.6709 61.3793 35.4096 61.5435 35.1384 61.5873L34.8196 59.6129Z" fill="url(#paint0_linear_2261_6460)" mask="url(#path-1-inside-1_2261_6460)"/>
<defs>
<linearGradient id="paint0_linear_2261_6460" x1="30" y1="0" x2="30" y2="66.2001" gradientUnits="userSpaceOnUse">
<stop stop-color="#26CAA9"/>
<stop offset="1" stop-color="#0B50FD"/>
</linearGradient>
</defs>
</svg>
