<svg viewBox="0 0 43 43" fill="none" xmlns="http://www.w3.org/2000/svg">
<path d="M7.5 37.25C7.00417 37.25 6.58883 37.082 6.254 36.746C5.91917 36.41 5.75117 35.9947 5.75 35.5V31.2563C5.75 30.7896 5.8375 30.3445 6.0125 29.921C6.1875 29.4975 6.43542 29.1259 6.75625 28.8062L28.85 6.75625C29.2 6.43542 29.5868 6.1875 30.0103 6.0125C30.4338 5.8375 30.8783 5.75 31.3438 5.75C31.8092 5.75 32.2613 5.8375 32.7 6.0125C33.1387 6.1875 33.5178 6.45 33.8375 6.8L36.2437 9.25C36.5937 9.57083 36.8487 9.95 37.0085 10.3875C37.1683 10.825 37.2488 11.2625 37.25 11.7C37.25 12.1667 37.1695 12.6118 37.0085 13.0353C36.8475 13.4588 36.5926 13.8449 36.2437 14.1937L14.1937 36.2437C13.8729 36.5646 13.5007 36.8125 13.0772 36.9875C12.6537 37.1625 12.2093 37.25 11.7438 37.25H7.5ZM31.3 14.15L33.75 11.7L31.3 9.25L28.85 11.7L31.3 14.15Z" fill="url(#paint0_linear_637_1351)"/>
<defs>
<linearGradient id="paint0_linear_637_1351" x1="21.5" y1="5.75" x2="21.5" y2="37.25" gradientUnits="userSpaceOnUse">
<stop stop-color="#26CAA9"/>
<stop offset="1" stop-color="#0B50FD"/>
</linearGradient>
</defs>
</svg>
