<svg xmlns="http://www.w3.org/2000/svg" viewBox="0 0 35 26" fill="none">
    <path d="M0 25.1298V22.1103C0 21.2596 0.22 20.5281 0.66 19.9158C1.10122 19.3047 1.694 18.8158 2.43833 18.4491C4.02844 17.6913 5.60756 17.0875 7.17567 16.6378C8.74256 16.188 10.6284 15.9631 12.8333 15.9631C15.0382 15.9631 16.9247 16.188 18.4928 16.6378C20.0609 17.0875 21.6401 17.6913 23.2302 18.4491C23.9733 18.8158 24.5654 19.3047 25.0067 19.9158C25.4467 20.5281 25.6667 21.2596 25.6667 22.1103V25.1298H0ZM29.3333 25.1298V22.0259C29.3333 20.9626 29.1182 19.9598 28.688 19.0174C28.259 18.0739 27.6491 17.2648 26.8583 16.5901C27.7591 16.7734 28.6269 17.0277 29.4617 17.3528C30.2952 17.6791 31.1202 18.0452 31.9367 18.4509C32.7311 18.8506 33.3538 19.3621 33.8048 19.9854C34.2558 20.6088 34.4813 21.2889 34.4813 22.0259V25.1298H29.3333ZM12.8333 11.8729C11.3214 11.8729 10.0271 11.3339 8.95033 10.2559C7.87356 9.17793 7.33456 7.88299 7.33333 6.3711C7.33211 4.85921 7.87111 3.56487 8.95033 2.4881C10.0296 1.41132 11.3239 0.872318 12.8333 0.871096C14.3428 0.869874 15.6377 1.40887 16.7182 2.4881C17.7986 3.56732 18.337 4.86165 18.3333 6.3711C18.3297 7.88054 17.7913 9.1761 16.7182 10.2578C15.6451 11.3394 14.3501 11.8772 12.8333 11.8711M26.1617 6.3711C26.1617 7.88421 25.6227 9.17976 24.5447 10.2578C23.4667 11.3358 22.1723 11.8735 20.6617 11.8711C20.5834 11.8711 20.4844 11.8625 20.3647 11.8454C20.2449 11.8283 20.1459 11.8088 20.0677 11.7868C20.6898 11.0265 21.1671 10.1832 21.4995 9.25676C21.8332 8.3291 22 7.36599 22 6.36743C22 5.36887 21.8258 4.41554 21.4775 3.50743C21.1292 2.59932 20.6592 1.74926 20.0677 0.957263C20.1667 0.921819 20.2657 0.898596 20.3647 0.887596C20.4637 0.876596 20.5627 0.871096 20.6617 0.871096C22.1736 0.871096 23.4679 1.4101 24.5447 2.4881C25.6214 3.5661 26.1604 4.86043 26.1617 6.3711Z" fill="url(#paint0_linear_637_6252)" fill-opacity="0.5"/>
    <defs>
        <linearGradient id="paint0_linear_637_6252" x1="34.4813" y1="25.1298" x2="16.8329" y2="-7.39862" gradientUnits="userSpaceOnUse">
            <stop stop-color="#73BCFC" stop-opacity="0.3"/>
            <stop offset="0.475962" stop-color="#146DE1" stop-opacity="0.63"/>
            <stop offset="1" stop-color="#73BCFC" stop-opacity="0.5"/>
        </linearGradient>
    </defs>
</svg>