<svg width="108" height="34" viewBox="0 0 108 34" fill="none" xmlns="http://www.w3.org/2000/svg">
<path d="M0.64 33.36V23.64C2.84 23.04 4.88 21.2 4.88 17.32V0.519998H17.68V17.32C17.68 21.2 19.56 23.04 21.96 23.64V33.36C17.48 33.36 12.84 32.6 9.24 28.8L8.4 29.52C8.96 30.16 9.68 30.76 10.48 31.32C7.8 32.6 4.08 33.36 0.64 33.36ZM35.36 33.36H23V0.519998H35.36V33.36ZM71.3569 33.36H59.3969V31.8C57.2369 32.64 53.8369 33.32 50.5169 33.32H46.7969C39.1969 33.32 37.4369 30.4 37.4369 24.44V0.519998H49.1569V21.28C49.1569 22.28 49.8769 22.68 50.9969 22.68C52.4369 22.68 56.8769 22.36 59.3969 21.4V0.519998H71.3569V33.36ZM107.354 18.52H73.4338V12.92H97.0338V11.64H73.4338V6.96H97.0338V5.84H73.4338V0.519998H107.354V18.52ZM87.1138 34C77.5538 34 73.4338 31.84 73.4338 27.24V25.8C77.9938 25.8 80.5538 25.52 85.0338 24.72V23.64C80.5538 24.44 77.9938 24.72 73.4338 24.72V19.44H107.354V24.68C103.954 25.84 99.7138 26.4 95.7538 26.4V27.48C99.7138 27.48 103.954 26.92 107.354 25.76V31.8C102.234 33.16 95.7138 34 87.1138 34Z" fill="url(#paint0_linear_2001_4055)"/>
<defs>
<linearGradient id="paint0_linear_2001_4055" x1="0" y1="-8" x2="103.923" y2="40.1454" gradientUnits="userSpaceOnUse">
<stop offset="0.00244105" stop-color="#26CAA9"/>
<stop offset="1" stop-color="#0B50FD"/>
</linearGradient>
</defs>
</svg>
