<svg width="359" height="112" viewBox="0 0 359 112" fill="none" xmlns="http://www.w3.org/2000/svg">
<mask id="path-1-inside-1_2153_6545" fill="white">
<path d="M346.014 0C352.641 0 358.014 5.37258 358.014 12V91C358.014 97.6274 352.641 103 346.014 103H65.6917C60.7753 103 56.1709 105.409 53.3681 109.448L52.3213 110.957C51.9235 111.53 51.0765 111.53 50.6787 110.957L49.6319 109.448C46.8291 105.409 42.2247 103 37.3083 103H12.2305C5.60311 103 0.230469 97.6274 0.230469 91V12C0.230469 5.37262 5.60311 6.58102e-05 12.2305 0H346.014Z"/>
</mask>
<path d="M346.014 0C352.641 0 358.014 5.37258 358.014 12V91C358.014 97.6274 352.641 103 346.014 103H65.6917C60.7753 103 56.1709 105.409 53.3681 109.448L52.3213 110.957C51.9235 111.53 51.0765 111.53 50.6787 110.957L49.6319 109.448C46.8291 105.409 42.2247 103 37.3083 103H12.2305C5.60311 103 0.230469 97.6274 0.230469 91V12C0.230469 5.37262 5.60311 6.58102e-05 12.2305 0H346.014Z" fill="url(#paint0_linear_2153_6545)" fill-opacity="0.5"/>
<path d="M358.014 12L360.014 12L358.014 12ZM52.3213 110.957L53.9639 112.098L53.9644 112.097L52.3213 110.957ZM50.6787 110.957L49.0356 112.097L49.0361 112.098L50.6787 110.957ZM12.2305 103L12.2304 105H12.2305V103ZM0.230469 91L-1.76953 91L0.230469 91ZM12.2305 0L12.2305 -2L12.2304 -2L12.2305 0ZM346.014 0V2C351.537 2 356.014 6.47715 356.014 12L358.014 12L360.014 12C360.014 4.26801 353.746 -2 346.014 -2V0ZM358.014 12H356.014V91H358.014H360.014V12H358.014ZM358.014 91H356.014C356.014 96.5228 351.537 101 346.014 101V103V105C353.746 105 360.014 98.732 360.014 91H358.014ZM346.014 103V101H65.6917V103V105H346.014V103ZM53.3681 109.448L51.7249 108.308L50.6781 109.817L52.3213 110.957L53.9644 112.097L55.0112 110.589L53.3681 109.448ZM52.3213 110.957L50.6787 109.816C51.0765 109.243 51.9235 109.243 52.3213 109.816L50.6787 110.957L49.0361 112.098C50.2295 113.816 52.7705 113.816 53.9639 112.098L52.3213 110.957ZM50.6787 110.957L52.3219 109.817L51.2751 108.308L49.6319 109.448L47.9888 110.589L49.0356 112.097L50.6787 110.957ZM37.3083 103V101H12.2305V103V105H37.3083V103ZM12.2305 103L12.2305 101C6.70767 101 2.23047 96.5228 2.23047 91L0.230469 91L-1.76953 91C-1.76953 98.732 4.49856 105 12.2304 105L12.2305 103ZM0.230469 91H2.23047V12H0.230469H-1.76953V91H0.230469ZM0.230469 12H2.23047C2.23047 6.47721 6.70766 2.00005 12.2305 2L12.2305 0L12.2304 -2C4.49855 -1.99992 -1.76953 4.26803 -1.76953 12H0.230469ZM12.2305 0V2H346.014V0V-2H12.2305V0ZM49.6319 109.448L51.2751 108.308C48.0985 103.731 42.8802 101 37.3083 101V103V105C41.5692 105 45.5596 107.088 47.9888 110.589L49.6319 109.448ZM65.6917 103V101C60.1198 101 54.9015 103.731 51.7249 108.308L53.3681 109.448L55.0112 110.589C57.4404 107.088 61.4308 105 65.6917 105V103Z" fill="#26CABA" mask="url(#path-1-inside-1_2153_6545)"/>
<defs>
<linearGradient id="paint0_linear_2153_6545" x1="358.014" y1="111.387" x2="314.129" y2="-71.4006" gradientUnits="userSpaceOnUse">
<stop stop-color="#86DED6" stop-opacity="0.3"/>
<stop offset="0.475962" stop-color="#26CABA" stop-opacity="0.5"/>
<stop offset="1" stop-color="#E5F1F1"/>
</linearGradient>
</defs>
</svg>
