
<svg width="155" height="53" viewBox="0 0 155 53" fill="none" xmlns="http://www.w3.org/2000/svg">
<mask id="path-1-inside-1_2200_6464" fill="white">
<path d="M131.651 0.0585938C144.546 0.0586998 155 10.5122 155 23.4072C155 36.3024 144.546 46.7557 131.651 46.7559H85.0088L81.6611 51.7021C81.234 52.3331 80.3041 52.333 79.877 51.7021L76.5293 46.7559H25.3486C12.4535 46.7558 2 36.3024 2 23.4072C2.00011 10.5122 12.4536 0.0587035 25.3486 0.0585938H131.651Z"/>
</mask>
<path d="M131.651 0.0585938C144.546 0.0586998 155 10.5122 155 23.4072C155 36.3024 144.546 46.7557 131.651 46.7559H85.0088L81.6611 51.7021C81.234 52.3331 80.3041 52.333 79.877 51.7021L76.5293 46.7559H25.3486C12.4535 46.7558 2 36.3024 2 23.4072C2.00011 10.5122 12.4536 0.0587035 25.3486 0.0585938H131.651Z" fill="white" fill-opacity="0.3"/>
<path d="M131.651 0.0585938L131.651 -1.44141H131.651V0.0585938ZM155 23.4072L156.5 23.4072L156.5 23.4072L155 23.4072ZM131.651 46.7559L131.651 48.2559L131.651 48.2559L131.651 46.7559ZM85.0088 46.7559V45.2559H84.2127L83.7666 45.9151L85.0088 46.7559ZM81.6611 51.7021L82.9033 52.543L82.9034 52.5429L81.6611 51.7021ZM79.877 51.7021L78.6347 52.5429L78.6349 52.5431L79.877 51.7021ZM76.5293 46.7559L77.7715 45.9151L77.3253 45.2559H76.5293V46.7559ZM25.3486 46.7559L25.3486 48.2559H25.3486V46.7559ZM2 23.4072L0.5 23.4072V23.4072H2ZM25.3486 0.0585938L25.3486 -1.44141L25.3486 -1.44141L25.3486 0.0585938ZM131.651 0.0585938L131.651 1.55859C143.718 1.55869 153.5 11.3406 153.5 23.4072L155 23.4072L156.5 23.4072C156.5 9.68376 145.375 -1.44129 131.651 -1.44141L131.651 0.0585938ZM155 23.4072H153.5C153.5 35.4739 143.718 45.2558 131.651 45.2559L131.651 46.7559L131.651 48.2559C145.375 48.2557 156.5 37.1308 156.5 23.4072H155ZM131.651 46.7559V45.2559H85.0088V46.7559V48.2559H131.651V46.7559ZM85.0088 46.7559L83.7666 45.9151L80.4189 50.8614L81.6611 51.7021L82.9034 52.5429L86.251 47.5966L85.0088 46.7559ZM81.6611 51.7021L80.419 50.8613C80.5869 50.6132 80.9514 50.6136 81.119 50.8612L79.877 51.7021L78.6349 52.5431C79.6568 54.0525 81.8811 54.053 82.9033 52.543L81.6611 51.7021ZM79.877 51.7021L81.1192 50.8614L77.7715 45.9151L76.5293 46.7559L75.2871 47.5966L78.6347 52.5429L79.877 51.7021ZM76.5293 46.7559V45.2559H25.3486V46.7559V48.2559H76.5293V46.7559ZM25.3486 46.7559L25.3486 45.2559C13.2819 45.2558 3.5 35.4739 3.5 23.4072H2H0.5C0.5 37.1308 11.6251 48.2557 25.3486 48.2559L25.3486 46.7559ZM2 23.4072L3.5 23.4072C3.50011 11.3406 13.282 1.5587 25.3486 1.55859L25.3486 0.0585938L25.3486 -1.44141C11.6252 -1.44129 0.500122 9.68376 0.5 23.4072L2 23.4072ZM25.3486 0.0585938V1.55859H131.651V0.0585938V-1.44141H25.3486V0.0585938Z" fill="url(#paint0_linear_2200_6464)" mask="url(#path-1-inside-1_2200_6464)"/>
<defs>
<linearGradient id="paint0_linear_2200_6464" x1="78.5" y1="0.0585937" x2="78.5" y2="52.1753" gradientUnits="userSpaceOnUse">
<stop stop-color="#26CAA9"/>
<stop offset="1" stop-color="#0B50FD"/>
</linearGradient>
</defs>
</svg>