<svg width="368" height="103" viewBox="0 0 368 103" fill="none" xmlns="http://www.w3.org/2000/svg">
<path d="M355.014 0C361.641 0 367.014 5.37258 367.014 12V91C367.014 97.6274 361.641 103 355.014 103H21.2305C14.6031 103 9.23047 97.6274 9.23047 91V12C9.23047 5.37258 14.6031 0 21.2305 0H355.014Z" fill="white"/>
<mask id="path-2-inside-1_2153_6593" fill="white">
<path d="M355.014 0C361.641 0 367.014 5.37258 367.014 12V91C367.014 97.6274 361.641 103 355.014 103H21.2305C14.6031 103 9.23047 97.6274 9.23047 91V12C9.23047 5.37258 14.6031 0 21.2305 0H355.014Z"/>
</mask>
<path d="M355.014 0C361.641 0 367.014 5.37258 367.014 12V91C367.014 97.6274 361.641 103 355.014 103H21.2305C14.6031 103 9.23047 97.6274 9.23047 91V12C9.23047 5.37258 14.6031 0 21.2305 0H355.014Z" fill="url(#paint0_linear_2153_6593)" fill-opacity="0.5"/>
<path d="M367.014 12L369.014 12L367.014 12ZM21.2305 103L21.2305 105H21.2305V103ZM9.23047 91L7.23047 91L9.23047 91ZM355.014 0V2C360.537 2 365.014 6.47715 365.014 12L367.014 12L369.014 12C369.014 4.26801 362.746 -2 355.014 -2V0ZM367.014 12H365.014V91H367.014H369.014V12H367.014ZM367.014 91H365.014C365.014 96.5228 360.537 101 355.014 101V103V105C362.746 105 369.014 98.732 369.014 91H367.014ZM355.014 103V101H21.2305V103V105H355.014V103ZM21.2305 103L21.2305 101C15.7076 101 11.2305 96.5228 11.2305 91L9.23047 91L7.23047 91C7.23047 98.732 13.4985 105 21.2305 105L21.2305 103ZM9.23047 91H11.2305V12H9.23047H7.23047V91H9.23047ZM9.23047 12H11.2305C11.2305 6.47715 15.7076 2 21.2305 2V0V-2C13.4985 -2 7.23047 4.26801 7.23047 12H9.23047ZM21.2305 0V2H355.014V0V-2H21.2305V0Z" fill="#26CABA" mask="url(#path-2-inside-1_2153_6593)"/>
<path d="M355.014 0C361.641 0 367.014 5.37258 367.014 12V91C367.014 97.6274 361.641 103 355.014 103H21.2305C14.6031 103 9.23047 97.6274 9.23047 91V85.7541C9.23047 80.8377 6.82126 76.2334 2.78214 73.4306L1.18359 72.3213C0.610769 71.9235 0.610768 71.0765 1.18359 70.6787L2.78316 69.5685C6.82169 66.7656 9.23047 62.1616 9.23047 57.2457V12C9.23047 5.37258 14.6031 0 21.2305 0H355.014Z" fill="white"/>
<mask id="path-5-inside-2_2153_6593" fill="white">
<path d="M355.013 0C361.641 7.13383e-05 367.013 5.37263 367.013 12V91C367.013 97.6274 361.641 103 355.013 103H21.2303C14.6028 103 9.23026 97.6274 9.23026 91V85.7539C9.23026 80.8371 6.82063 76.2325 2.78093 73.4297L1.18338 72.3213C0.610748 71.9235 0.610747 71.0765 1.18338 70.6787L2.78194 69.5694C6.82105 66.7666 9.23026 62.1623 9.23026 57.2459V12C9.23026 5.37258 14.6028 0 21.2303 0H355.013Z"/>
</mask>
<path d="M355.013 0C361.641 7.13383e-05 367.013 5.37263 367.013 12V91C367.013 97.6274 361.641 103 355.013 103H21.2303C14.6028 103 9.23026 97.6274 9.23026 91V85.7539C9.23026 80.8371 6.82063 76.2325 2.78093 73.4297L1.18338 72.3213C0.610748 71.9235 0.610747 71.0765 1.18338 70.6787L2.78194 69.5694C6.82105 66.7666 9.23026 62.1623 9.23026 57.2459V12C9.23026 5.37258 14.6028 0 21.2303 0H355.013Z" fill="url(#paint1_linear_2153_6593)" fill-opacity="0.5"/>
<path d="M355.013 0L355.013 -2H355.013V0ZM367.013 12L369.013 12L367.013 12ZM355.013 103L355.013 105L355.013 105L355.013 103ZM9.23026 91L7.23026 91L9.23026 91ZM1.18338 72.3213L0.0423755 73.9639L0.0432939 73.9645L1.18338 72.3213ZM1.18338 70.6787L0.0431592 69.0356L0.042377 69.0361L1.18338 70.6787ZM2.78093 73.4297L1.64084 75.0729L2.78093 73.4297ZM355.013 0L355.013 2C360.536 2.00006 365.013 6.47722 365.013 12L367.013 12L369.013 12C369.013 4.26804 362.745 -1.99992 355.013 -2L355.013 0ZM367.013 12H365.013V91H367.013H369.013V12H367.013ZM367.013 91H365.013C365.013 96.5228 360.536 101 355.013 101L355.013 103L355.013 105C362.745 105 369.013 98.732 369.013 91H367.013ZM355.013 103V101H21.2303V103V105H355.013V103ZM21.2303 103V101C15.7074 101 11.2303 96.5228 11.2303 91L9.23026 91L7.23026 91C7.23026 98.732 13.4983 105 21.2303 105V103ZM9.23026 91H11.2303V85.7539H9.23026H7.23026V91H9.23026ZM2.78093 73.4297L3.92101 71.7865L2.32347 70.6781L1.18338 72.3213L0.0432939 73.9645L1.64084 75.0729L2.78093 73.4297ZM1.18338 72.3213L2.32439 70.6787C2.89708 71.0765 2.89708 71.9235 2.32439 72.3213L1.18338 70.6787L0.042377 69.0361C-1.67559 70.2295 -1.67558 72.7705 0.0423757 73.9639L1.18338 72.3213ZM1.18338 70.6787L2.32361 72.3218L3.92216 71.2126L2.78194 69.5694L1.64171 67.9263L0.0431593 69.0356L1.18338 70.6787ZM9.23026 57.2459H11.2303V12H9.23026H7.23026V57.2459H9.23026ZM9.23026 12H11.2303C11.2303 6.47715 15.7074 2 21.2303 2V0V-2C13.4983 -2 7.23026 4.26801 7.23026 12H9.23026ZM21.2303 0V2H355.013V0V-2H21.2303V0ZM2.78194 69.5694L3.92216 71.2126C8.49982 68.036 11.2303 62.8178 11.2303 57.2459H9.23026H7.23026C7.23026 61.5068 5.14228 65.4971 1.64171 67.9263L2.78194 69.5694ZM9.23026 85.7539H11.2303C11.2303 80.1815 8.49934 74.9629 3.92101 71.7865L2.78093 73.4297L1.64084 75.0729C5.14191 77.502 7.23026 81.4927 7.23026 85.7539H9.23026Z" fill="#26CABA" mask="url(#path-5-inside-2_2153_6593)"/>
<defs>
<linearGradient id="paint0_linear_2153_6593" x1="367.014" y1="103" x2="329.189" y2="-67.3703" gradientUnits="userSpaceOnUse">
<stop stop-color="#86DED6" stop-opacity="0.3"/>
<stop offset="0.475962" stop-color="#26CABA" stop-opacity="0.5"/>
<stop offset="1" stop-color="#E5F1F1"/>
</linearGradient>
<linearGradient id="paint1_linear_2153_6593" x1="367.013" y1="103" x2="329.985" y2="-67.7373" gradientUnits="userSpaceOnUse">
<stop stop-color="#86DED6" stop-opacity="0.3"/>
<stop offset="0.475962" stop-color="#26CABA" stop-opacity="0.5"/>
<stop offset="1" stop-color="#E5F1F1"/>
</linearGradient>
</defs>
</svg>
