<svg width="359" height="113" viewBox="0 0 359 113" fill="none" xmlns="http://www.w3.org/2000/svg">
<mask id="path-1-inside-1_2153_6566" fill="white">
<path d="M311.671 1.18729C312.069 0.614654 312.916 0.614653 313.313 1.18729L314.956 3.55461C317.759 7.59417 322.363 10.0037 327.28 10.0037H346.014C352.641 10.0037 358.014 15.3763 358.014 22.0037V101.004C358.014 107.631 352.641 113.004 346.014 113.004H12.2305C5.60306 113.004 0.230469 107.631 0.230469 101.004V22.0037C0.230469 15.3763 5.60305 10.0037 12.2305 10.0037H297.704C302.621 10.0037 307.226 7.59417 310.028 3.55462L311.671 1.18729Z"/>
</mask>
<path d="M311.671 1.18729C312.069 0.614654 312.916 0.614653 313.313 1.18729L314.956 3.55461C317.759 7.59417 322.363 10.0037 327.28 10.0037H346.014C352.641 10.0037 358.014 15.3763 358.014 22.0037V101.004C358.014 107.631 352.641 113.004 346.014 113.004H12.2305C5.60306 113.004 0.230469 107.631 0.230469 101.004V22.0037C0.230469 15.3763 5.60305 10.0037 12.2305 10.0037H297.704C302.621 10.0037 307.226 7.59417 310.028 3.55462L311.671 1.18729Z" fill="url(#paint0_linear_2153_6566)" fill-opacity="0.5"/>
<path d="M311.671 1.18729L310.028 0.0462825L310.028 0.0471664L311.671 1.18729ZM313.313 1.18729L314.957 0.0471662L314.956 0.0462841L313.313 1.18729ZM358.014 22.0037L360.014 22.0037L358.014 22.0037ZM12.2305 113.004L12.2305 115.004H12.2305V113.004ZM0.230469 101.004L-1.76953 101.004L0.230469 101.004ZM310.028 3.55462L308.385 2.41449L310.028 3.55462ZM314.956 3.55461L316.599 2.41449L314.956 3.55461ZM311.671 1.18729L313.313 2.3283C312.916 2.90098 312.069 2.90099 311.671 2.32829L313.313 1.18729L314.956 0.0462841C313.763 -1.67168 311.222 -1.67168 310.028 0.0462827L311.671 1.18729ZM313.313 1.18729L311.67 2.32741L313.313 4.69474L314.956 3.55461L316.599 2.41449L314.957 0.0471664L313.313 1.18729ZM327.28 10.0037V12.0037H346.014V10.0037V8.0037H327.28V10.0037ZM346.014 10.0037V12.0037C351.537 12.0037 356.014 16.4808 356.014 22.0037L358.014 22.0037L360.014 22.0037C360.014 14.2717 353.746 8.0037 346.014 8.0037V10.0037ZM358.014 22.0037H356.014V101.004H358.014H360.014V22.0037H358.014ZM358.014 101.004H356.014C356.014 106.527 351.537 111.004 346.014 111.004V113.004V115.004C353.746 115.004 360.014 108.736 360.014 101.004H358.014ZM346.014 113.004V111.004H12.2305V113.004V115.004H346.014V113.004ZM12.2305 113.004L12.2305 111.004C6.70763 111.004 2.23047 106.527 2.23047 101.004L0.230469 101.004L-1.76953 101.004C-1.76953 108.736 4.49849 115.004 12.2305 115.004L12.2305 113.004ZM0.230469 101.004H2.23047V22.0037H0.230469H-1.76953V101.004H0.230469ZM0.230469 22.0037H2.23047C2.23047 16.4808 6.70762 12.0037 12.2305 12.0037V10.0037V8.0037C4.49848 8.0037 -1.76953 14.2717 -1.76953 22.0037H0.230469ZM12.2305 10.0037V12.0037H297.704V10.0037V8.0037H12.2305V10.0037ZM310.028 3.55462L311.672 4.69474L313.314 2.32741L311.671 1.18729L310.028 0.0471664L308.385 2.41449L310.028 3.55462ZM297.704 10.0037V12.0037C303.277 12.0037 308.495 9.2729 311.672 4.69474L310.028 3.55462L308.385 2.41449C305.956 5.91544 301.965 8.0037 297.704 8.0037V10.0037ZM314.956 3.55461L313.313 4.69474C316.489 9.2729 321.708 12.0037 327.28 12.0037V10.0037V8.0037C323.019 8.0037 319.028 5.91544 316.599 2.41449L314.956 3.55461Z" fill="#26CABA" mask="url(#path-1-inside-1_2153_6566)"/>
<defs>
<linearGradient id="paint0_linear_2153_6566" x1="358.014" y1="113.004" x2="313.486" y2="-71.0384" gradientUnits="userSpaceOnUse">
<stop stop-color="#86DED6" stop-opacity="0.3"/>
<stop offset="0.475962" stop-color="#26CABA" stop-opacity="0.5"/>
<stop offset="1" stop-color="#E5F1F1"/>
</linearGradient>
</defs>
</svg>
