<svg viewBox="0 0 17 31" fill="none" xmlns="http://www.w3.org/2000/svg">
<path d="M0.0676906 28.9701C0.0666644 28.7527 0.10908 28.5372 0.19245 28.3364C0.275819 28.1355 0.398465 27.9534 0.553187 27.8005L12.6243 15.7295L0.553188 3.65839C0.260832 3.34464 0.101669 2.92967 0.109234 2.50089C0.1168 2.07211 0.290503 1.663 0.593744 1.35976C0.896987 1.05652 1.30609 0.882823 1.73488 0.875257C2.16366 0.867692 2.57864 1.02685 2.89239 1.31921L16.1331 14.5599C16.4431 14.8702 16.6172 15.2909 16.6172 15.7295C16.6172 16.1681 16.4431 16.5887 16.1331 16.8991L2.89239 30.1397C2.58205 30.4497 2.16139 30.6238 1.72279 30.6238C1.28418 30.6238 0.863517 30.4497 0.553187 30.1397C0.398465 29.9869 0.275819 29.8048 0.19245 29.6039C0.10908 29.4031 0.0666644 29.1876 0.0676906 28.9701Z" fill="currentColor"/>
</svg>
