<svg viewBox="0 0 24 24" fill="none" xmlns="http://www.w3.org/2000/svg">
<path d="M11.9989 2.57031C6.79078 2.57031 2.57031 6.79195 2.57031 11.9989C2.57031 17.2058 6.79078 21.4275 11.9989 21.4275C17.207 21.4275 21.4275 17.2058 21.4275 11.9989C21.4275 6.79195 17.207 2.57031 11.9989 2.57031ZM16.3678 14.7013C16.5888 14.9223 16.713 15.2221 16.713 15.5346C16.713 15.8471 16.5888 16.1469 16.3678 16.3678C16.1469 16.5888 15.8471 16.713 15.5346 16.713C15.2221 16.713 14.9223 16.5888 14.7013 16.3678L11.9989 13.6654L9.29642 16.3678C9.18722 16.4777 9.05739 16.5648 8.91439 16.6243C8.77139 16.6838 8.61804 16.7144 8.46317 16.7144C8.3083 16.7144 8.15495 16.6838 8.01195 16.6243C7.86895 16.5648 7.73912 16.4777 7.62992 16.3678C7.40897 16.1468 7.28485 15.8471 7.28485 15.5346C7.28485 15.2221 7.40897 14.9224 7.62992 14.7013L10.3324 11.9989L7.62992 9.29642C7.40893 9.07543 7.28478 8.7757 7.28478 8.46317C7.28478 8.15064 7.40893 7.85091 7.62992 7.62992C7.85091 7.40893 8.15064 7.28478 8.46317 7.28478C8.7757 7.28478 9.07543 7.40893 9.29642 7.62992L11.9989 10.3324L14.7013 7.62992C14.9223 7.40893 15.2221 7.28478 15.5346 7.28478C15.8471 7.28478 16.1469 7.40893 16.3678 7.62992C16.5888 7.85091 16.713 8.15064 16.713 8.46317C16.713 8.7757 16.5888 9.07543 16.3678 9.29642L13.6654 11.9989L16.3678 14.7013Z" fill="black"/>
</svg>
