<svg viewBox="0 0 19 20" fill="none" xmlns="http://www.w3.org/2000/svg">
<path d="M9.62194 19.4941L9.61195 19.4959L9.54746 19.5277L9.52929 19.5313L9.51658 19.5277L9.45209 19.4959C9.4424 19.4929 9.43513 19.4944 9.43029 19.5004L9.42666 19.5095L9.41121 19.8983L9.41576 19.9164L9.42484 19.9283L9.5193 19.9955L9.53293 19.9991L9.54383 19.9955L9.63829 19.9283L9.64919 19.9137L9.65283 19.8983L9.63738 19.5104C9.63496 19.5007 9.62982 19.4953 9.62194 19.4941ZM9.86265 19.3914L9.85084 19.3933L9.6828 19.4777L9.67372 19.4868L9.67099 19.4968L9.68734 19.8874L9.69188 19.8983L9.69915 19.9046L9.88172 19.9891C9.89323 19.9921 9.90201 19.9897 9.90806 19.9818L9.9117 19.9691L9.88081 19.4114C9.87779 19.4005 9.87173 19.3939 9.86265 19.3914ZM9.2132 19.3933C9.2092 19.3908 9.20441 19.39 9.19984 19.3911C9.19528 19.3921 9.19127 19.3948 9.18868 19.3987L9.18323 19.4114L9.15234 19.9691C9.15295 19.98 9.1581 19.9873 9.16779 19.9909L9.18141 19.9891L9.36398 19.9046L9.37306 19.8974L9.3767 19.8874L9.39214 19.4968L9.38941 19.4859L9.38033 19.4768L9.2132 19.3933Z" fill="currentColor"/>
<path d="M9.08316 0.1875C14.0998 0.1875 18.1663 4.25403 18.1663 9.27066C18.1663 14.2873 14.0998 18.3538 9.08316 18.3538C4.06653 18.3538 0 14.2873 0 9.27066C0 4.25403 4.06653 0.1875 9.08316 0.1875ZM9.08316 3.82076C8.84226 3.82076 8.61122 3.91646 8.44088 4.0868C8.27054 4.25714 8.17484 4.48818 8.17484 4.72908V9.27066C8.17489 9.51154 8.27063 9.74253 8.44098 9.91284L11.1659 12.6378C11.3372 12.8032 11.5667 12.8948 11.8048 12.8927C12.043 12.8907 12.2708 12.7951 12.4392 12.6267C12.6076 12.4583 12.7032 12.2305 12.7052 11.9923C12.7073 11.7542 12.6157 11.5247 12.4503 11.3534L9.99147 8.89462V4.72908C9.99147 4.48818 9.89578 4.25714 9.72543 4.0868C9.55509 3.91646 9.32406 3.82076 9.08316 3.82076Z" fill="currentColor"/>
</svg>
