<svg viewBox="0 0 37 26" fill="currentColor" xmlns="http://www.w3.org/2000/svg">
<path d="M0.0820312 25.9127V22.6873C0.0820312 21.7786 0.317032 20.9973 0.787031 20.3432C1.25834 19.6904 1.89153 19.1682 2.68661 18.7765C4.38514 17.9671 6.07192 17.3221 7.74695 16.8417C9.42067 16.3612 11.4351 16.121 13.7904 16.121C16.1456 16.121 18.1607 16.3612 19.8357 16.8417C21.5108 17.3221 23.1975 17.9671 24.8961 18.7765C25.6898 19.1682 26.3224 19.6904 26.7937 20.3432C27.2637 20.9973 27.4987 21.7786 27.4987 22.6873V25.9127H0.0820312ZM31.4154 25.9127V22.5972C31.4154 21.4614 31.1856 20.3902 30.726 19.3836C30.2678 18.3757 29.6163 17.5114 28.7716 16.7908C29.7338 16.9866 30.6608 17.2581 31.5524 17.6054C32.4428 17.954 33.3241 18.345 34.1962 18.7785C35.0448 19.2054 35.71 19.7518 36.1917 20.4176C36.6735 21.0834 36.9144 21.81 36.9144 22.5972V25.9127H31.4154ZM13.7904 11.752C12.1754 11.752 10.7928 11.1762 9.64261 10.0247C8.49242 8.87321 7.91667 7.48998 7.91536 5.875C7.91406 4.26003 8.48981 2.87745 9.64261 1.72725C10.7954 0.577058 12.178 0.00130777 13.7904 2.21531e-06C15.4027 -0.00130334 16.786 0.574447 17.9401 1.72725C19.0942 2.88006 19.6693 4.26264 19.6654 5.875C19.6614 7.48736 19.0864 8.87125 17.9401 10.0267C16.7938 11.1821 15.4106 11.7565 13.7904 11.75M28.0274 5.875C28.0274 7.49128 27.4517 8.87517 26.3002 10.0267C25.1487 11.1782 23.7661 11.7526 22.1524 11.75C22.0689 11.75 21.9631 11.7409 21.8352 11.7226C21.7073 11.7043 21.6015 11.6834 21.5179 11.6599C22.1825 10.8479 22.6923 9.94703 23.0474 8.95742C23.4038 7.9665 23.582 6.93773 23.582 5.87109C23.582 4.80445 23.396 3.78611 23.0239 2.81609C22.6518 1.84606 22.1498 0.938045 21.5179 0.0920447C21.6237 0.0541836 21.7294 0.0293778 21.8352 0.0176278C21.9409 0.00587781 22.0467 2.21531e-06 22.1524 2.21531e-06C23.7674 2.21531e-06 25.15 0.575752 26.3002 1.72725C27.4504 2.87875 28.0261 4.26134 28.0274 5.875ZM2.04036 23.9543H25.5404V22.6873C25.5404 22.2277 25.4255 21.8263 25.1957 21.4829C24.9659 21.1396 24.5534 20.8106 23.958 20.4959C22.4971 19.7152 20.9566 19.1173 19.3364 18.7021C17.7162 18.2869 15.8675 18.0793 13.7904 18.0793C11.7132 18.0793 9.8639 18.2869 8.2424 18.7021C6.62352 19.1173 5.08296 19.7152 3.62074 20.4959C3.02671 20.8093 2.61481 21.1383 2.38503 21.4829C2.15525 21.8263 2.04036 22.2277 2.04036 22.6873V23.9543ZM13.7904 9.79363C14.8674 9.79363 15.7898 9.40979 16.5575 8.64213C17.3252 7.87446 17.7083 6.95209 17.707 5.875C17.7057 4.79792 17.3225 3.8762 16.5575 3.10984C15.7924 2.34348 14.8701 1.95964 13.7904 1.95834C12.7107 1.95703 11.7889 2.34086 11.0252 3.10984C10.2614 3.87881 9.87761 4.80053 9.8737 5.875C9.86978 6.94948 10.2536 7.87185 11.0252 8.64213C11.7968 9.41241 12.7185 9.79559 13.7904 9.79167" fill="currentColor"/>
</svg>
