<svg viewBox="0 0 27 27" fill="none" xmlns="http://www.w3.org/2000/svg">
<path fill-rule="evenodd" clip-rule="evenodd" d="M9.11925 2.87212C9.21261 2.68528 9.35615 2.52812 9.53378 2.41825C9.71142 2.30837 9.91613 2.25011 10.125 2.25H16.875C17.0839 2.25011 17.2886 2.30837 17.4662 2.41825C17.6438 2.52812 17.7874 2.68528 17.8807 2.87212L19.8202 6.75H22.5C22.7984 6.75 23.0845 6.86853 23.2955 7.0795C23.5065 7.29048 23.625 7.57663 23.625 7.875C23.625 8.17337 23.5065 8.45952 23.2955 8.6705C23.0845 8.88147 22.7984 9 22.5 9H21.375V21.375C21.375 22.2701 21.0194 23.1286 20.3865 23.7615C19.7536 24.3944 18.8951 24.75 18 24.75H9C8.10489 24.75 7.24645 24.3944 6.61351 23.7615C5.98058 23.1286 5.625 22.2701 5.625 21.375V9H4.5C4.20163 9 3.91548 8.88147 3.7045 8.6705C3.49353 8.45952 3.375 8.17337 3.375 7.875C3.375 7.57663 3.49353 7.29048 3.7045 7.0795C3.91548 6.86853 4.20163 6.75 4.5 6.75H7.17975L9.11925 2.87212ZM16.1798 4.5L17.3048 6.75H9.69525L10.8203 4.5H16.1798ZM12.375 12.375C12.375 12.0766 12.2565 11.7905 12.0455 11.5795C11.8345 11.3685 11.5484 11.25 11.25 11.25C10.9516 11.25 10.6655 11.3685 10.4545 11.5795C10.2435 11.7905 10.125 12.0766 10.125 12.375V19.125C10.125 19.4234 10.2435 19.7095 10.4545 19.9205C10.6655 20.1315 10.9516 20.25 11.25 20.25C11.5484 20.25 11.8345 20.1315 12.0455 19.9205C12.2565 19.7095 12.375 19.4234 12.375 19.125V12.375ZM16.875 12.375C16.875 12.0766 16.7565 11.7905 16.5455 11.5795C16.3345 11.3685 16.0484 11.25 15.75 11.25C15.4516 11.25 15.1655 11.3685 14.9545 11.5795C14.7435 11.7905 14.625 12.0766 14.625 12.375V19.125C14.625 19.4234 14.7435 19.7095 14.9545 19.9205C15.1655 20.1315 15.4516 20.25 15.75 20.25C16.0484 20.25 16.3345 20.1315 16.5455 19.9205C16.7565 19.7095 16.875 19.4234 16.875 19.125V12.375Z" fill="currentColor"/>
</svg>
