<svg viewBox="0 0 23 23" fill="none" xmlns="http://www.w3.org/2000/svg">
<path d="M1.27778 23C0.915741 23 0.612482 22.8773 0.368 22.632C0.123519 22.3867 0.000851852 22.0834 0 21.7222V18.6236C0 18.2829 0.063889 17.9579 0.191667 17.6487C0.319445 17.3394 0.500463 17.0681 0.734722 16.8347L16.8667 0.734722C17.1222 0.500463 17.4046 0.319445 17.7138 0.191667C18.0231 0.063889 18.3476 0 18.6875 0C19.0274 0 19.3575 0.063889 19.6778 0.191667C19.9981 0.319445 20.2749 0.511111 20.5083 0.766667L22.2653 2.55556C22.5208 2.78981 22.707 3.06667 22.8237 3.38611C22.9404 3.70556 22.9991 4.025 23 4.34444C23 4.68519 22.9412 5.01017 22.8237 5.31939C22.7061 5.62861 22.52 5.91057 22.2653 6.16528L6.16528 22.2653C5.93102 22.4995 5.65928 22.6806 5.35006 22.8083C5.04083 22.9361 4.71628 23 4.37639 23H1.27778ZM18.6556 6.13333L20.4444 4.34444L18.6556 2.55556L16.8667 4.34444L18.6556 6.13333Z" fill="currentColor"/>
</svg>