<svg xmlns="http://www.w3.org/2000/svg"  viewBox="0 0 24 24" fill="none">
    <path d="M10.25 16C10.8156 16 11.3189 16.2678 11.6396 16.6855C11.9357 17.0711 12.4261 17.5 13.0791 17.5H19.25C19.3881 17.5 19.5 17.6119 19.5 17.75C19.5 17.8881 19.3881 18 19.25 18H13.0791C12.4261 18 11.9357 18.4289 11.6396 18.8145C11.3189 19.2322 10.8156 19.5 10.25 19.5C9.68438 19.5 9.18107 19.2322 8.86035 18.8145C8.56429 18.4289 8.07394 18 7.4209 18H5.75C5.61193 18 5.5 17.8881 5.5 17.75C5.5 17.6119 5.61193 17.5 5.75 17.5H7.4209C8.07394 17.5 8.56429 17.0711 8.86035 16.6855C9.18107 16.2678 9.68438 16 10.25 16ZM10.25 16.5C9.55965 16.5 9 17.0596 9 17.75C9 18.4404 9.55965 19 10.25 19C10.9403 19 11.5 18.4404 11.5 17.75C11.5 17.0596 10.9403 16.5 10.25 16.5ZM14.75 10.75C15.3156 10.75 15.8189 11.0178 16.1396 11.4355C16.4357 11.8211 16.9261 12.25 17.5791 12.25H19.25C19.3881 12.25 19.5 12.3619 19.5 12.5C19.5 12.6381 19.3881 12.75 19.25 12.75H17.5791C16.9261 12.75 16.4357 13.1789 16.1396 13.5645C15.8189 13.9822 15.3156 14.25 14.75 14.25C14.1844 14.25 13.6811 13.9822 13.3604 13.5645C13.0643 13.1789 12.5739 12.75 11.9209 12.75H5.75C5.61193 12.75 5.5 12.6381 5.5 12.5C5.5 12.3619 5.61193 12.25 5.75 12.25H11.9209C12.5739 12.25 13.0643 11.8211 13.3604 11.4355C13.6811 11.0178 14.1844 10.75 14.75 10.75ZM14.75 11.25C14.0596 11.25 13.5 11.8096 13.5 12.5C13.5 13.1904 14.0596 13.75 14.75 13.75C15.4404 13.75 16 13.1904 16 12.5C16 11.8096 15.4404 11.25 14.75 11.25ZM10.25 5.5C10.8156 5.5 11.3189 5.76778 11.6396 6.18555C11.9357 6.57111 12.4261 6.99997 13.0791 7H19.25C19.3881 7 19.5 7.11193 19.5 7.25C19.5 7.38807 19.3881 7.5 19.25 7.5H13.0791C12.4261 7.50003 11.9357 7.92889 11.6396 8.31445C11.3189 8.73222 10.8156 9 10.25 9C9.68438 9 9.18108 8.73223 8.86035 8.31445C8.56429 7.92887 8.07394 7.50002 7.4209 7.5H5.75C5.61193 7.5 5.5 7.38807 5.5 7.25C5.5 7.11193 5.61193 7 5.75 7H7.4209C8.07394 6.99998 8.56429 6.57113 8.86035 6.18555C9.18108 5.76777 9.68438 5.5 10.25 5.5ZM10.25 6C9.55965 6 9 6.55965 9 7.25C9 7.94035 9.55965 8.5 10.25 8.5C10.9404 8.5 11.5 7.94035 11.5 7.25C11.5 6.55965 10.9404 6 10.25 6Z" fill="currentColor" stroke="currentColor"/>
</svg>