<svg viewBox="0 0 38 33" fill="none" xmlns="http://www.w3.org/2000/svg">
<path d="M23.3853 29.8762C27.5254 26.7669 33.5 21.8991 35.9897 18.0061C37.8527 15.0976 38.4588 11.4943 37.6485 8.14392C35.9173 0.512158 26.3305 -2.60636 20.3589 2.50799C20.023 2.79372 19.7134 3.11049 19.3956 3.43575C19.266 3.5685 19.1349 3.70264 19 3.83667C18.8651 3.70264 18.734 3.56848 18.6044 3.43573C18.2866 3.11049 17.977 2.79372 17.6411 2.50799C11.6695 -2.60636 2.08275 0.512158 0.351496 8.14392C-0.458798 11.4943 0.147283 15.0976 2.01029 18.0061C4.5 21.8991 10.4746 26.7669 14.6147 29.8762C15.7683 30.7428 19 33 19 33C19 33 22.2317 30.7428 23.3853 29.8762Z" fill="white" fill-opacity="0.5"/>
</svg>
