<svg viewBox="0 0 30 31" fill="currentColor" xmlns="http://www.w3.org/2000/svg">
<path d="M3 14C1.34315 14 0 12.6569 0 11V3.5C0 1.84315 1.34315 0.5 3 0.5H10.5C12.1569 0.5 13.5 1.84315 13.5 3.5V11C13.5 12.6569 12.1569 14 10.5 14H3ZM0 20C0 18.3431 1.34315 17 3 17H10.5C12.1569 17 13.5 18.3431 13.5 20V27.5C13.5 29.1569 12.1569 30.5 10.5 30.5H3C1.34315 30.5 0 29.1569 0 27.5V20ZM19.5 0.5C17.8431 0.5 16.5 1.84315 16.5 3.5V11C16.5 12.6569 17.8431 14 19.5 14H27C28.6569 14 30 12.6569 30 11V3.5C30 1.84315 28.6569 0.5 27 0.5H19.5ZM19.5 30.5C17.8431 30.5 16.5 29.1569 16.5 27.5V20C16.5 18.3431 17.8431 17 19.5 17H27C28.6569 17 30 18.3431 30 20V27.5C30 29.1569 28.6569 30.5 27 30.5H19.5Z" fill="currentColor"/>
</svg>
