<svg  viewBox="0 0 26 25" fill="none" xmlns="http://www.w3.org/2000/svg">
<path d="M13 11.3379C11.4573 11.3379 10.1431 10.7855 9.05729 9.68065C7.97148 8.57584 7.42857 7.2386 7.42857 5.66893C7.42857 4.09927 7.97148 2.76203 9.05729 1.65722C10.1431 0.552406 11.4573 0 13 0C14.5427 0 15.8569 0.552406 16.9427 1.65722C18.0285 2.76203 18.5714 4.09927 18.5714 5.66893C18.5714 7.2386 18.0285 8.57584 16.9427 9.68065C15.8569 10.7855 14.5427 11.3379 13 11.3379ZM0 23.0385V21.8896C0 21.1099 0.222857 20.3804 0.668572 19.7014C1.11552 19.0212 1.716 18.4933 2.47 18.1179C4.22314 17.2625 5.97752 16.6213 7.73314 16.1943C9.48752 15.7659 11.2431 15.5518 13 15.5518C14.7569 15.5518 16.5131 15.7659 18.2687 16.1943C20.0243 16.6226 21.7775 17.2638 23.5281 18.1179C24.2834 18.4933 24.8839 19.0212 25.3296 19.7014C25.7765 20.3804 26 21.1099 26 21.8896V23.0385C26 23.5928 25.8149 24.059 25.4447 24.4369C25.0745 24.8123 24.6164 25 24.0704 25H1.93143C1.38543 25 0.927334 24.8117 0.557143 24.435C0.186953 24.0583 0.0012381 23.5928 0 23.0385Z" fill="white"/>
</svg>
