<svg xmlns="http://www.w3.org/2000/svg" width="16" height="16" viewBox="0 0 16 16" fill="none">
    <path d="M2.7 3.99C2.86568 3.99 3 4.12431 3 4.29L3 15.7C3 15.8657 3.13431 16 3.3 16L4.7 16C4.86569 16 5 15.8657 5 15.7L5 4.29C5 4.12431 5.13431 3.99 5.3 3.99L7.27445 3.99C7.5419 3.99 7.67567 3.66648 7.48632 3.4776L4.21187 0.211337C4.09477 0.0945337 3.90523 0.0945328 3.78813 0.211337L0.513682 3.4776C0.324328 3.66648 0.458095 3.99 0.725548 3.99L2.7 3.99Z" fill="white"/>
    <path d="M13.3 12.01C13.1343 12.01 13 11.8757 13 11.71L13 0.3C13 0.134314 12.8657 -1.37005e-07 12.7 -1.44248e-07L11.3 -2.05444e-07C11.1343 -2.12686e-07 11 0.134314 11 0.3L11 11.71C11 11.8757 10.8657 12.01 10.7 12.01L8.72555 12.01C8.4581 12.01 8.32433 12.3335 8.51368 12.5224L11.7881 15.7887C11.9052 15.9055 12.0948 15.9055 12.2119 15.7887L15.4863 12.5224C15.6757 12.3335 15.5419 12.01 15.2745 12.01L13.3 12.01Z" fill="white"/>
</svg>