<svg xmlns="http://www.w3.org/2000/svg" viewBox="0 0 19 19" fill="none">
    <path d="M8.56396 1.08104C8.91929 0.299614 10.0293 0.299614 10.3846 1.08104L12.4026 5.5191C12.5445 5.83114 12.8364 6.04876 13.1759 6.09573L17.8996 6.74916C18.7188 6.86248 19.0542 7.86455 18.4683 8.44819L14.9509 11.9521C14.7193 12.1829 14.6151 12.5123 14.6719 12.8343L15.5457 17.7867C15.6929 18.6205 14.8018 19.2484 14.066 18.8294L9.96918 16.496C9.66238 16.3212 9.28616 16.3212 8.97936 16.496L4.88251 18.8294C4.14674 19.2484 3.25568 18.6205 3.40281 17.7867L4.27666 12.8343C4.33348 12.5123 4.22928 12.1829 3.99763 11.9521L0.480237 8.44819C-0.105645 7.86455 0.229783 6.86248 1.04896 6.74916L5.77264 6.09573C6.11219 6.04876 6.40403 5.83114 6.54592 5.5191L8.56396 1.08104Z" fill="#FFD000"/>
</svg>