<svg width="26" height="25" viewBox="0 0 26 25" fill="none" xmlns="http://www.w3.org/2000/svg">
<path d="M12.182 0.296327C12.229 -0.0987756 12.8023 -0.0987756 12.8492 0.296327L13.2425 3.61088C13.7503 7.89086 17.1248 11.2653 21.4047 11.7731L24.7193 12.1664C25.1144 12.2133 25.1144 12.7867 24.7193 12.8336L21.4047 13.2269C17.1248 13.7347 13.7503 17.1091 13.2425 21.3891L12.8492 24.7036C12.8023 25.0988 12.229 25.0988 12.182 24.7036L11.7888 21.3891C11.2809 17.1091 7.90648 13.7347 3.6265 13.2269L0.311952 12.8336C-0.0831506 12.7867 -0.0831506 12.2133 0.311952 12.1664L3.6265 11.7731C7.90648 11.2653 11.2809 7.89086 11.7888 3.61088L12.182 0.296327Z" fill="#26CABA"/>
</svg>
